# xmcd
#
# Track frame offsets:
# 150
# 17577
# 34213
# 53212
# 77368
# 91920
# 103548
# 116882
# 130577
# 150608
# 161031
#
# Disc length: 2337 seconds
#
# Revision: 0
# Processed by: cddbd v1.5.2PL0 Copyright (c) Steve Scherf et al.
# Submitted via: Audion 3.0.2 (http://www.panic.com/audion/)
#
DISCID=7d091f0b
DTITLE=Smokin George Winters - Back 2 the B3
DYEAR=1900
DGENRE=
TTITLE0=Higher Ground
TTITLE1=Pipeline
TTITLE2=Billy Jean
TTITLE3=The World is a Ghetto
TTITLE4=Summertime
TTITLE5=The Line
TTITLE6=LaGrange
TTITLE7=The River
TTITLE8=Mr. Magic
TTITLE9=You Don't Know Me
TTITLE10=Frankenstein
EXTD=
EXTT0=
EXTT1=
EXTT2=
EXTT3=
EXTT4=
EXTT5=
EXTT6=
EXTT7=
EXTT8=
EXTT9=
EXTT10=
PLAYORDER=
